<?xml version="1.0" encoding="UTF-8"?>
<svg id="Layer_1" data-name="Layer 1" xmlns="http://www.w3.org/2000/svg" viewBox="0 0 16 16">
  <defs>
    <style>
      .cls-1 {
        fill: #ff8217;
      }
    </style>
  </defs>
  <path class="cls-1" d="M0,0v16h8.59c4.09,0,7.41-3.53,7.41-8h0C16,3.53,12.68,0,8.59,0H0ZM4.09,13.95H1.53v-6.73h2.56v6.73ZM4.09,6.79H1.53v-2.8h2.56v2.8ZM4.5,3.99c.9,0,1.74.29,2.45.78,1.27.88,2.11,2.44,2.11,4.2s-.84,3.32-2.11,4.2c-.71.49-1.55.78-2.45.78V3.99ZM8.73,13.95h-1.79v-.27c.38-.24.74-.53,1.06-.88.94-1.02,1.45-2.38,1.45-3.83s-.52-2.8-1.45-3.83c-.32-.35-.67-.64-1.06-.88v-.27h1.79c2.52,0,4.56,2.23,4.56,4.98s-2.04,4.98-4.56,4.98Z"/>
</svg>